<?xml version="1.0" standalone="no"?>
<!DOCTYPE svg PUBLIC "-//W3C//DTD SVG 20010904//EN"
 "http://www.w3.org/TR/2001/REC-SVG-20010904/DTD/svg10.dtd">
<svg version="1.0" xmlns="http://www.w3.org/2000/svg"
 width="444.000000pt" height="624.000000pt" viewBox="0 0 444.000000 624.000000"
 preserveAspectRatio="xMidYMid meet">
<metadata>
Created by potrace 1.15, written by Peter Selinger 2001-2017
</metadata>
<g transform="translate(0.000000,624.000000) scale(0.100000,-0.100000)"
fill="#000000" stroke="none">
<path d="M1866 5998 c-39 -110 -41 -125 -41 -273 1 -123 5 -165 23 -234 41
-149 107 -300 204 -463 22 -38 38 -74 35 -82 -3 -8 -33 -33 -66 -55 -55 -38
-89 -76 -78 -87 8 -9 153 65 176 90 l25 26 -111 228 c-120 247 -123 251 -153
362 -40 144 -35 359 10 475 l12 30 53 -57 c97 -104 171 -254 220 -448 36 -142
52 -276 60 -488 7 -185 18 -250 50 -293 17 -24 17 -24 11 21 -15 115 -27 242
-41 435 -9 116 -20 230 -25 255 -14 70 -12 88 10 95 29 9 25 28 -16 81 -19 26
-63 106 -98 178 -69 144 -110 200 -171 227 -60 28 -71 25 -89 -23z"/>
<path d="M2471 5800 c0 -19 0 -44 0 -55 -2 -18 -3 -18 -15 4 l-14 24 -15 -29
-15 -29 -23 48 c-13 26 -29 47 -37 47 -9 0 -12 -6 -7 -17 11 -30 25 -116 20
-122 -3 -2 -12 4 -19 15 -32 45 -55 69 -61 62 -4 -3 0 -19 8 -35 8 -15 18 -44
22 -63 l7 -35 -30 28 c-50 47 -47 13 6 -65 27 -40 68 -107 92 -148 50 -86 156
-246 168 -254 4 -3 26 0 49 5 56 15 104 -1 204 -65 98 -64 99 -64 166 30 45
62 63 77 63 52 -1 -24 -59 -119 -112 -183 -55 -66 -68 -76 -68 -50 0 23 -29
76 -59 108 -39 43 -93 67 -151 67 -27 0 -50 -1 -50 -2 0 -2 10 -28 21 -58 33
-84 31 -190 -5 -263 -15 -31 -42 -69 -61 -85 -31 -28 -32 -30 -13 -36 37 -9
85 19 109 66 20 37 23 59 24 153 0 61 -3 129 -8 153 l-7 43 37 -20 c69 -35
102 -91 110 -189 11 -138 -24 -272 -152 -572 -140 -331 -168 -433 -186 -692
-15 -203 -5 -365 46 -751 51 -379 53 -411 25 -475 -13 -29 -20 -55 -17 -58 2
-3 32 2 65 10 33 9 69 16 81 16 20 0 21 5 21 98 0 114 -16 211 -70 432 -22 89
-47 203 -55 254 -22 136 -29 343 -16 490 18 209 52 319 216 708 80 192 115
320 118 445 l3 91 50 40 c58 46 126 123 178 202 33 50 36 52 36 27 0 -39 -31
-95 -93 -169 -86 -100 -90 -112 -88 -258 2 -157 -10 -198 -124 -440 -143 -302
-187 -476 -201 -790 -8 -172 4 -336 51 -692 19 -141 38 -300 41 -354 7 -95 8
-97 39 -115 17 -10 41 -32 53 -49 12 -16 36 -37 52 -45 27 -14 30 -14 30 0 0
33 -31 220 -60 361 -17 82 -44 214 -61 294 -45 223 -60 358 -60 545 0 291 34
416 199 745 124 246 152 332 160 485 4 84 8 104 26 123 11 13 89 79 172 147
83 68 156 131 163 139 23 28 32 17 15 -16 -10 -18 -79 -96 -154 -174 -147
-151 -184 -207 -196 -300 -6 -50 11 -164 25 -164 3 0 15 13 24 29 38 65 141
196 215 272 114 120 341 303 314 253 -20 -35 -139 -178 -287 -344 -249 -278
-356 -424 -440 -602 -103 -220 -126 -338 -128 -673 -2 -235 0 -270 20 -360
104 -472 96 -418 98 -670 1 -126 5 -239 10 -250 11 -26 36 -55 48 -55 12 0 3
247 -29 730 -36 568 -32 741 26 949 79 282 243 529 516 775 124 113 404 340
404 329 0 -5 -5 -14 -11 -20 -7 -7 -9 -19 -5 -28 4 -12 26 10 86 84 44 54 80
102 80 105 0 3 -7 6 -15 6 -22 0 -18 17 11 56 31 41 16 44 -32 8 -46 -36 -54
-23 -17 29 52 74 52 105 0 61 -16 -14 -32 -22 -35 -19 -3 2 1 23 8 45 17 51 7
62 -22 24 -13 -16 -34 -40 -47 -54 -33 -34 -40 -10 -12 41 12 22 18 39 14 39
-12 0 -52 -28 -85 -58 -48 -44 -47 -24 7 111 14 34 -19 17 -82 -44 -35 -34
-66 -59 -69 -56 -4 3 10 32 29 64 34 55 56 113 43 113 -3 0 -42 -37 -86 -82
-43 -45 -81 -80 -84 -77 -3 2 11 36 30 74 19 39 37 85 40 104 7 32 6 33 -14
22 -12 -6 -40 -36 -63 -66 -62 -83 -78 -72 -34 23 14 30 25 58 25 63 0 18 -22
8 -47 -21 -27 -33 -49 -40 -38 -12 28 68 22 93 -12 52 -27 -31 -35 -24 -27 26
8 58 -3 56 -54 -10 -49 -66 -66 -71 -47 -16 17 48 20 116 5 125 -5 3 -18 -12
-30 -35 -23 -45 -37 -51 -43 -17 -3 19 -6 16 -21 -18 -9 -22 -25 -58 -36 -80
-28 -60 -26 -14 7 110 15 57 24 108 19 112 -4 4 -20 -7 -35 -24 -45 -54 -65
-36 -40 36 6 17 8 44 4 59 -7 26 -8 24 -39 -37 l-32 -63 -10 32 c-12 41 -25
43 -38 3 -13 -39 -36 -65 -36 -42 0 9 5 41 11 73 16 76 -1 97 -28 35 -11 -24
-27 -50 -36 -58 -16 -12 -17 -7 -17 58 0 39 -4 71 -9 71 -5 0 -17 -32 -26 -71
-18 -82 -45 -150 -52 -132 -2 6 0 29 6 50 6 21 11 53 11 72 0 30 -2 33 -25 27
-29 -7 -29 -7 -13 46 8 27 8 42 1 49 -7 7 -12 2 -17 -16 l-7 -26 -23 28 -23
27 -7 -70 c-9 -93 -22 -111 -28 -38 -4 51 -9 61 -44 93 l-39 36 -5 -55 c-4
-43 -9 -56 -24 -58 -25 -5 -39 11 -51 61 -14 58 -30 44 -31 -28 -1 -81 -2 -95
-13 -95 -5 0 -17 32 -26 70 -10 39 -26 81 -36 93 l-20 22 2 -35z"/>
<path d="M1990 5703 c1 -16 7 -57 15 -93 8 -36 14 -83 15 -104 l0 -40 -34 33
c-23 23 -35 28 -38 19 -9 -22 28 -151 67 -234 33 -73 156 -267 176 -280 19
-11 -40 316 -82 457 -29 98 -101 269 -113 269 -3 0 -6 -12 -6 -27z"/>
<path d="M2715 5010 c18 -81 17 -149 -4 -220 -19 -62 -31 -82 -79 -130 -74
-74 -131 -94 -243 -88 -108 6 -107 -14 7 -90 33 -22 68 -52 78 -67 16 -24 16
-29 0 -86 -9 -33 -14 -62 -12 -65 8 -7 140 170 197 264 108 181 134 370 65
482 l-15 25 6 -25z"/>
<path d="M4110 4843 c-52 -73 -215 -237 -420 -424 -446 -405 -570 -628 -610
-1094 -11 -129 -11 -588 -1 -825 l6 -145 23 43 c36 68 50 146 57 327 3 94 11
208 16 255 46 389 198 742 467 1080 130 163 529 546 549 526 4 -3 -3 -30 -15
-59 -26 -62 -28 -81 -6 -73 10 4 13 2 8 -7 -15 -24 -130 -164 -251 -304 -389
-451 -477 -644 -638 -1403 -31 -146 -74 -328 -95 -405 -21 -77 -46 -176 -56
-220 -23 -108 -23 -273 -1 -347 17 -57 74 -143 92 -140 6 1 15 61 22 133 52
576 212 1169 434 1610 137 273 359 580 461 638 28 17 55 28 59 25 4 -2 11 -25
15 -51 11 -74 -15 -132 -118 -273 -342 -464 -532 -937 -723 -1804 -38 -173
-49 -283 -35 -369 11 -70 42 -151 73 -192 15 -19 15 -18 21 15 3 19 13 107 21
195 35 359 85 530 187 641 39 43 105 90 113 82 2 -2 -23 -94 -56 -203 -120
-398 -152 -557 -153 -755 -1 -190 30 -298 113 -391 l38 -43 6 103 c17 251 80
416 267 696 90 135 162 258 198 340 l29 67 6 -43 c20 -140 27 -289 18 -350
-10 -76 -31 -120 -111 -239 -96 -142 -128 -218 -156 -368 -52 -278 11 -585
173 -836 24 -37 46 -66 48 -64 2 2 -5 53 -16 113 -11 61 -23 168 -26 240 -8
181 5 272 74 500 10 34 17 130 23 300 5 138 13 273 19 300 17 87 13 310 -9
427 -42 231 -45 441 -8 598 16 69 16 503 0 672 -10 104 -9 132 9 250 25 163
26 257 5 368 -9 47 -18 144 -21 215 -2 72 -12 243 -21 380 -16 256 -23 285
-61 285 -9 0 -12 7 -7 25 9 36 2 31 -36 -22z m101 -1638 c1 -126 -19 -233 -82
-455 -22 -80 -62 -237 -89 -350 -69 -293 -112 -396 -194 -460 -19 -15 -19 -12
-12 139 20 442 122 881 283 1211 l66 135 14 -55 c7 -30 14 -104 14 -165z"/>
<path d="M2088 4798 c4 -18 7 -80 6 -138 0 -126 -12 -170 -98 -364 -72 -161
-92 -217 -104 -298 -17 -109 45 -56 79 67 26 97 38 121 99 205 26 36 55 80 64
97 22 45 31 115 18 152 -15 41 3 40 19 -1 12 -33 13 -33 16 -7 7 43 -25 169
-61 246 -38 79 -50 92 -38 41z"/>
<path d="M2173 4803 c3 -10 8 -36 12 -58 3 -22 24 -105 46 -185 31 -111 42
-170 46 -250 6 -129 -8 -197 -76 -359 -79 -188 -92 -239 -92 -371 0 -129 18
-233 60 -350 56 -151 56 -151 57 63 1 106 6 237 13 292 19 167 92 709 98 725
4 10 13 0 27 -30 18 -39 21 -62 20 -175 0 -111 -6 -153 -37 -290 -20 -88 -41
-200 -48 -250 -14 -111 -7 -311 23 -583 24 -222 31 -605 11 -679 -10 -39 -9
-43 7 -43 23 0 78 38 102 71 11 14 24 55 31 92 14 83 2 197 -47 452 -70 370
-72 503 -11 835 51 280 54 348 20 487 -22 91 -25 118 -17 142 10 29 9 32 -19
46 -48 26 -85 89 -130 223 -22 70 -52 146 -66 170 -25 44 -38 55 -30 25z"/>
<path d="M2022 4741 c-23 -99 -76 -205 -179 -358 -56 -84 -103 -155 -103 -158
0 -11 47 -4 67 10 12 9 37 40 55 70 29 48 54 72 64 62 8 -7 -74 -163 -95 -182
-18 -16 -35 -19 -89 -17 -54 2 -75 -2 -107 -21 -22 -12 -40 -29 -40 -36 0 -7
21 -21 46 -31 26 -9 71 -31 102 -49 30 -17 61 -31 69 -31 9 0 20 18 28 43 7
23 46 117 86 209 41 93 83 199 93 238 24 86 35 212 24 264 l-9 40 -12 -53z"/>
<path d="M1845 4635 c-50 -66 -142 -196 -204 -290 -132 -197 -136 -202 -127
-157 10 55 37 102 105 187 79 98 111 151 111 188 l0 28 -31 -18 c-84 -48 -164
-190 -249 -438 -75 -218 -128 -323 -201 -396 -33 -33 -63 -58 -66 -55 -9 8 41
107 102 201 72 111 111 193 125 262 17 78 7 86 -18 16 -28 -75 -92 -174 -208
-320 -49 -61 -100 -131 -113 -155 l-25 -43 32 33 c36 39 46 38 72 -4 l20 -31
-88 -103 c-48 -57 -108 -117 -134 -134 -53 -35 -59 -51 -23 -68 34 -15 31 -32
-7 -57 -18 -11 -58 -41 -88 -66 -66 -54 -82 -58 -46 -10 l26 34 -30 16 c-57
29 -86 12 -65 -37 5 -12 2 -20 -9 -24 -22 -9 -66 4 -66 19 0 7 41 53 91 102
92 92 149 166 149 194 0 11 -11 4 -32 -19 -17 -19 -106 -114 -198 -210 -189
-199 -203 -214 -289 -328 -171 -227 -260 -421 -261 -568 0 -41 9 -67 46 -138
36 -69 51 -113 69 -206 28 -141 42 -175 84 -216 28 -27 41 -32 104 -38 40 -3
128 -19 197 -36 140 -33 204 -37 257 -15 55 23 73 43 108 120 18 39 47 87 64
109 53 66 37 124 -58 206 -33 29 -61 59 -61 66 0 18 98 37 164 32 81 -7 110
-31 114 -95 3 -53 -13 -112 -27 -97 -5 5 -14 32 -20 59 -20 81 -33 95 -91 95
-28 0 -50 -3 -50 -6 0 -3 18 -26 39 -51 43 -48 71 -116 71 -171 0 -27 3 -33
16 -28 9 3 19 6 24 6 21 0 75 59 96 105 37 79 31 198 -12 246 -13 14 -21 15
-72 3 -76 -18 -238 -18 -320 1 -89 20 -165 65 -199 117 -23 33 -28 53 -27 97
0 32 7 69 17 86 12 22 16 25 17 11 0 -10 12 -40 27 -67 32 -60 92 -102 183
-129 67 -20 230 -40 329 -40 35 0 65 -6 79 -16 70 -48 85 -211 32 -331 l-19
-43 27 0 c35 0 100 38 126 73 17 24 21 43 21 125 0 85 -3 104 -25 147 -45 88
-112 121 -333 165 -196 39 -251 64 -354 162 -58 54 -78 68 -94 63 -20 -7 -20
-6 -5 22 22 41 38 58 64 72 21 11 28 8 69 -29 59 -55 177 -109 333 -153 224
-63 300 -102 359 -183 59 -80 81 -223 57 -373 -8 -45 -7 -53 5 -49 8 3 39 11
69 19 30 7 56 14 58 15 1 0 7 37 12 81 24 212 -50 377 -221 494 -31 21 -153
85 -270 143 -135 66 -234 121 -267 149 l-54 44 -49 -18 c-27 -11 -74 -19 -104
-19 l-55 0 24 48 c14 27 36 53 50 60 24 11 26 10 26 -12 l0 -24 53 20 c42 16
69 19 137 16 111 -6 172 -34 372 -171 145 -98 226 -147 246 -147 12 0 -2 73
-24 131 -94 240 -371 375 -615 299 -35 -10 -65 -18 -67 -16 -4 5 118 112 163
143 56 38 151 83 176 83 12 0 42 -12 67 -26 58 -34 93 -34 172 2 53 23 78 29
135 28 75 0 114 -15 152 -56 40 -43 54 -103 64 -293 14 -264 14 -266 106 -570
28 -92 34 -209 14 -268 -7 -22 -9 -42 -5 -47 5 -4 32 -3 61 3 l51 11 16 62
c20 79 20 211 1 302 -8 38 -42 154 -75 258 -76 236 -87 301 -72 426 13 105 9
131 -39 231 -38 80 -37 129 1 282 17 66 30 129 30 140 0 15 -23 32 -83 66
-106 60 -185 89 -264 96 -42 4 -63 10 -63 19 0 7 5 16 10 19 6 3 10 15 10 27
0 20 1 20 46 2 11 -5 136 121 223 226 120 144 195 292 189 374 l-3 41 -90
-120z m-57 -882 c-8 -111 -73 -199 -156 -210 -29 -4 -68 5 -151 33 -102 35
-115 37 -154 27 -23 -6 -43 -10 -45 -9 -1 2 7 25 18 51 11 26 18 51 14 54 -3
3 -33 -23 -65 -59 -32 -36 -59 -60 -59 -54 0 27 148 224 169 224 3 0 56 -29
116 -65 60 -36 120 -65 133 -65 35 0 106 53 138 104 35 56 48 46 42 -31z"/>
<path d="M2217 4460 c-3 -14 -10 -50 -16 -81 -16 -75 -54 -154 -144 -292 -161
-246 -183 -334 -133 -522 13 -49 32 -140 41 -202 19 -133 47 -252 109 -464 77
-263 88 -330 80 -505 -8 -173 -5 -190 28 -173 75 38 108 111 108 240 0 110
-19 190 -114 474 -130 387 -192 704 -168 845 13 72 55 164 136 294 78 125 98
183 98 281 0 44 -4 91 -10 105 l-10 25 -5 -25z"/>
<path d="M1042 3591 c-28 -32 -72 -78 -98 -102 -60 -57 -176 -191 -169 -197
15 -15 334 304 335 335 0 30 -21 18 -68 -36z"/>
<path d="M1475 3293 c-47 -10 -115 -35 -115 -42 0 -13 53 -58 113 -95 67 -43
111 -99 133 -170 9 -32 18 -124 24 -246 9 -194 19 -252 65 -380 28 -77 36
-138 25 -187 -6 -25 -8 -48 -6 -51 8 -8 105 31 110 44 8 21 -12 136 -54 312
-38 162 -47 221 -70 477 -20 208 -51 293 -123 326 -41 18 -63 21 -102 12z"/>
</g>
</svg>
